<svg id="图层_1" data-name="图层 1" xmlns="http://www.w3.org/2000/svg" viewBox="0 0 32 32">
    <title>节点</title>
    <path d="M16,0A16,16,0,1,0,32,16,16,16,0,0,0,16,0ZM12.59,7.68a8.86,8.86,0,0,1,2.64-.63c.26,0,.52,0,.78,0a9.3,9.3,0,0,1,3.41.68A.61.61,0,1,1,19,8.83c-.38-.13-.77-.28-1.16-.38a7.69,7.69,0,0,0-4.76.35.61.61,0,0,1-.88-.57A.58.58,0,0,1,12.59,7.68ZM9.65,20.45a10.32,10.32,0,0,0,.79,1,.75.75,0,0,1,.25.5.61.61,0,0,1-.37.58.6.6,0,0,1-.68-.14,9.24,9.24,0,0,1-1.55-2.08,8.89,8.89,0,0,1-1-3.3c0-.32,0-.65-.06-.88a9,9,0,0,1,2.59-6.4.68.68,0,0,1,.65-.25.6.6,0,0,1,.46.42.58.58,0,0,1-.16.61,7.45,7.45,0,0,0-2,3.5A7.6,7.6,0,0,0,9.65,20.45Zm9.88,3.8a8.06,8.06,0,0,1-2.35.65c-.39.05-.79.07-1.18.1a9.38,9.38,0,0,1-3.28-.64.92.92,0,0,1-.39-.24.6.6,0,0,1-.05-.69.59.59,0,0,1,.64-.28c.24.06.46.16.7.24A7.75,7.75,0,0,0,19,23.14a.61.61,0,0,1,.79.32A.6.6,0,0,1,19.53,24.25ZM16,20a4,4,0,1,1,4.06-4A4,4,0,0,1,16,20Zm6.42,2.25a.61.61,0,0,1-.86-.87,7.76,7.76,0,0,0,.68-10.05,7.27,7.27,0,0,0-.68-.79.63.63,0,0,1-.07-.8.58.58,0,0,1,.81-.16,1.75,1.75,0,0,1,.37.35,8.93,8.93,0,0,1,2.1,4A9.12,9.12,0,0,1,25,16,9,9,0,0,1,22.42,22.29Z"/>
</svg>