<svg xmlns="http://www.w3.org/2000/svg" viewBox="0 0 57.7448 60">
  <defs>
    <style>
      .cls-1 {
        fill: #0085e8;
      }
    </style>
  </defs>
  <title>资源 15</title>
  <g id="图层_2" data-name="图层 2">
    <g id="图层_1-2" data-name="图层 1">
      <path class="cls-1" d="M54.8862,14.2456,30.6612,27.6448a3.6961,3.6961,0,0,1-3.5776,0L2.8587,14.2456a1.7606,1.7606,0,0,1,.0952-3.24L26.9666.4288a4.2407,4.2407,0,0,1,3.7163,0L54.6956,10.9105A1.792,1.792,0,0,1,54.8862,14.2456ZM24.108,59.7289,2.0963,47.7226A3.4907,3.4907,0,0,1,0,44.5781V20.47a2.07,2.07,0,0,1,3.1445-1.5246L25.1562,30.9518a3.5622,3.5622,0,0,1,2.001,3.1445v24.108C27.2525,59.5384,25.442,60.4913,24.108,59.7289Zm9.6241,0L55.7438,47.7226a3.5621,3.5621,0,0,0,2.001-3.1445V20.47A2.07,2.07,0,0,0,54.6,18.9455L32.4934,30.8565a3.5621,3.5621,0,0,0-2.0011,3.1446V58.109a2.1663,2.1663,0,0,0,3.24,1.62Z"/>
    </g>
  </g>
</svg>
