<svg xmlns="http://www.w3.org/2000/svg" viewBox="0 0 56.6604 59.9215">
  <defs>
    <style>
      .cls-1 {
        fill: #0085e8;
      }
    </style>
  </defs>
  <title>集成服务 s-copy</title>
  <g id="图层_2" data-name="图层 2">
    <g id="图层_1-2" data-name="图层 1">
      <g id="集成服务_s-copy" data-name="集成服务 s-copy">
        <path id="Combined-Shape" class="cls-1" d="M.4333,18.783A3.7078,3.7078,0,0,1,1.8624,13.81L26.4833.4925a3.71,3.71,0,0,1,3.694,0L54.7981,13.81a3.6935,3.6935,0,0,1,1.43,1.4647,3.7844,3.7844,0,0,1,.295,2.7655,3.66,3.66,0,0,1-1.8144,2.2553L30.0882,32.7272a3.7108,3.7108,0,0,1-3.516,0L1.9514,20.2954A3.6828,3.6828,0,0,1,.4333,18.783ZM.3294,32.6916a2.6278,2.6278,0,0,1,3.5639-3.55l23.7535,11.81a1.4813,1.4813,0,0,0,1.4106-.0012l23.7107-11.9a2.6275,2.6275,0,0,1,3.5593,1.0687l.0063.0117a2.6331,2.6331,0,0,1-1.0752,3.5472l-23.7114,11.9a6.956,6.956,0,0,1-3.2169.9048,6.7944,6.7944,0,0,1-3.1751-.9046L1.4016,33.7684A2.6135,2.6135,0,0,1,.3294,32.6916Zm0,13.3781a2.6277,2.6277,0,0,1,3.5639-3.55L27.6469,54.33a1.481,1.481,0,0,0,1.41-.0011l23.7109-11.9a2.6306,2.6306,0,0,1,3.5593,1.0686l.0063.0116a2.6332,2.6332,0,0,1-1.0753,3.5473l-23.7114,11.9a6.95,6.95,0,0,1-3.1962.9653,6.9493,6.9493,0,0,1-3.1958-.965L1.4016,47.1465A2.6129,2.6129,0,0,1,.3294,46.07Z"/>
      </g>
    </g>
  </g>
</svg>
