<svg xmlns="http://www.w3.org/2000/svg" viewBox="0 0 43.8135 43.9906">
  <defs>
    <style>
      .cls-1 {
        fill: #333;
      }
    </style>
  </defs>
  <title>资源 10</title>
  <g id="图层_2" data-name="图层 2">
    <g id="图层_1-2" data-name="图层 1">
      <path class="cls-1" d="M42.6949,19.2034,24.61,1.1186a3.826,3.826,0,0,0-5.4068,0L1.1186,19.2034a3.81,3.81,0,0,0,2.7033,6.5254H5.0037V38.8635a5.1725,5.1725,0,0,0,5.1271,5.1271H16.77a1.4521,1.4521,0,0,0,1.408-1.4076V28.9279h7.4576V42.583a1.3273,1.3273,0,0,0,.1188.5422,1.4569,1.4569,0,0,0,.1113.2c.0059.009.01.0192.0157.028a1.4221,1.4221,0,0,0,1.1578.6375h6.213a5.1123,5.1123,0,0,0,5.1272-5.1271V31.4059a1.3983,1.3983,0,1,0-2.7966,0v7.4576a2.3079,2.3079,0,0,1-2.3306,2.3305h-4.82V28.9279a2.8046,2.8046,0,0,0-2.7967-2.7966H18.1779a2.8046,2.8046,0,0,0-2.7966,2.7966V41.194h-5.25A2.3079,2.3079,0,0,1,7.8,38.8635V24.3377a1.4371,1.4371,0,0,0-.8782-1.2889,1.3253,1.3253,0,0,0-.5385-.1166H3.8219A1.0776,1.0776,0,0,1,2.89,22.28a.9028.9028,0,0,1,.1864-1.1186L21.161,3.0762a1.1327,1.1327,0,0,1,1.4915,0L40.7372,21.161a1.0656,1.0656,0,0,1,.1865,1.1186.9606.9606,0,0,1-.9322.6526H38.5a1.3983,1.3983,0,0,0,0,2.7966h1.4916a3.81,3.81,0,0,0,2.7034-6.5254Z"/>
    </g>
  </g>
</svg>
