<svg xmlns="http://www.w3.org/2000/svg" viewBox="0 0 43.8514 43.9907">
  <defs>
    <style>
      .cls-1 {
        fill: #0085e8;
      }
    </style>
  </defs>
  <title>资源 2</title>
  <g id="图层_2" data-name="图层 2">
    <g id="图层_1-2" data-name="图层 1">
      <path class="cls-1" d="M21.9255,0a3.8145,3.8145,0,0,0-2.7034,1.1186L1.1375,19.2034A3.81,3.81,0,0,0,3.81,25.7289H5.0226V38.8635A5.1726,5.1726,0,0,0,10.15,43.9906h6.6392a1.4521,1.4521,0,0,0,1.408-1.4076V28.9279h7.4576V42.583a1.3263,1.3263,0,0,0,.1188.5422,1.458,1.458,0,0,0,.1113.2c.0059.009.01.0192.0157.028a1.4224,1.4224,0,0,0,1.1578.6375h6.2282a5.1121,5.1121,0,0,0,5.112-5.0973c0-.01,0-.02,0-.03V25.7288h1.6438a3.81,3.81,0,0,0,2.6718-6.5255h0L24.6289,1.1186A3.8141,3.8141,0,0,0,21.9255,0ZM3.8408,22.9322a1.0777,1.0777,0,0,1-.9319-.6522.9028.9028,0,0,1,.1864-1.1186L21.18,3.0762a1.1328,1.1328,0,0,1,1.4915,0L40.7561,21.161a1.0655,1.0655,0,0,1,.1865,1.1186.9605.9605,0,0,1-.91.6528l-.0224,0H37a1.3983,1.3983,0,0,0-1.3983,1.3983v14.533a2.3078,2.3078,0,0,1-2.2851,2.3305H28.4511V28.9279a2.8046,2.8046,0,0,0-2.7967-2.7966H18.1968A2.8046,2.8046,0,0,0,15.4,28.9279V41.194h-5.274A2.308,2.308,0,0,1,7.8189,38.91q0-.0231,0-.0462V24.3377a1.4372,1.4372,0,0,0-.8782-1.2889,1.3259,1.3259,0,0,0-.5385-.1166Z"/>
    </g>
  </g>
</svg>
